# xmcd
#
# Track frame offsets:
#	150
#	18467
#	39091
#	55533
#	81121
#	96324
#	117844
#	136272
#	145618
#	185730
#	195558
#	207176
#
# Disc length: 2962 seconds
#
# Revision: 4784264
# Processed by: cddbd v1.5.2PL0 Copyright (c) Steve Scherf et al.
# Submitted via: EZCDAudioConverter 8.5.0.1
#
DISCID=9a0b900c
DTITLE=The Velvet Underground - The Velvet Underground: 45th Anniversary 3/6
DYEAR=2014
DGENRE=
TTITLE0=Candy Says [Mono Mix]
TTITLE1=What Goes On [Mono Mix]
TTITLE2=Some Kinda Love [Mono Mix]
TTITLE3=Pale Blue Eyes [Mono Mix]
TTITLE4=Jesus [Mono Mix]
TTITLE5=Beginning To See The Light [Mono Mix]
TTITLE6=I'm Set Free [Mono Mix]
TTITLE7=That's The Story Of My Life [Mono Mix]
TTITLE8=The Murder Mystery [Mono Mix]
TTITLE9=After Hours [Mono Mix]
TTITLE10=What Goes On [Mono Single]
TTITLE11=Jesus [Mono Single]
EXTD=
EXTT0=
EXTT1=
EXTT2=
EXTT3=
EXTT4=
EXTT5=
EXTT6=
EXTT7=
EXTT8=
EXTT9=
EXTT10=
EXTT11=
PLAYORDER=
